<svg width="512" height="512" version="1.1" viewBox="0 0 135.47 135.47" xmlns="http://www.w3.org/2000/svg"><g transform="translate(0 -161.53)"><rect y="161.53" width="135.47" height="135.47" fill="#0c1f58"/><g transform="matrix(.46846 0 0 .44654 -50.409 111.46)" fill="#d5f6ff" aria-label="R"><path d="m247.25 275.17h-24.094l-46.688-55.5h-26.156v55.5h-18.562v-139.59h39.094q12.656 0 21.094 1.6875 8.4375 1.5938 15.188 5.8125 7.5938 4.7812 11.812 12.094 4.3125 7.2188 4.3125 18.375 0 15.094-7.5938 25.312-7.5938 10.125-20.906 15.281zm-43.406-100.31q0-6-2.1562-10.594-2.0625-4.6875-6.9375-7.875-4.0312-2.7188-9.5625-3.75-5.5312-1.125-13.031-1.125h-21.844v52.688h18.75q8.8125 0 15.375-1.5 6.5625-1.5938 11.156-5.8125 4.2188-3.9375 6.1875-9 2.0625-5.1562 2.0625-13.031z" style=""/></g><g transform="matrix(.49366 0 0 .39916 -11.66 176.63)" fill="#d5f6ff" aria-label="R"><path d="m247.25 275.17h-24.094l-46.688-55.5h-26.156v55.5h-18.562v-139.59h39.094q12.656 0 21.094 1.6875 8.4375 1.5938 15.188 5.8125 7.5938 4.7812 11.812 12.094 4.3125 7.2188 4.3125 18.375 0 15.094-7.5938 25.312-7.5938 10.125-20.906 15.281zm-43.406-100.31q0-6-2.1562-10.594-2.0625-4.6875-6.9375-7.875-4.0312-2.7188-9.5625-3.75-5.5312-1.125-13.031-1.125h-21.844v52.688h18.75q8.8125 0 15.375-1.5 6.5625-1.5938 11.156-5.8125 4.2188-3.9375 6.1875-9 2.0625-5.1562 2.0625-13.031z" style=""/></g></g></svg>
